<svg xmlns="http://www.w3.org/2000/svg" version="1.1" xmlns:xlink="http://www.w3.org/1999/xlink" xmlns:svgjs="http://svgjs.dev/svgjs" width="91px" height="91px"><svg width="91px" height="91px" viewBox="0 0 91 91" version="1.1" xmlns="http://www.w3.org/2000/svg" xmlns:xlink="http://www.w3.org/1999/xlink">
    <title>Group 2</title>
    <g id="SvgjsG1015" stroke="none" stroke-width="1" fill="none" fill-rule="evenodd">
        <g id="SvgjsG1014" transform="translate(-19.000000, -18.000000)">
            <g id="SvgjsG1013" transform="translate(19.000000, 18.000000)">
                <path d="M57.0769231,80 C59.6296296,80 62,79.529042 64.1880342,78.5871261 C65.7196581,77.927785 67.0279202,77.0489315 68.1128205,75.9505657 L68.4250712,75.6143476 L68.4273504,79.1729519 L78,79.1729519 L78,27 L67.7435897,27 L67.7435897,44.7080191 L67.6259829,44.5857997 C66.8328205,43.8138882 65.928547,43.1482293 64.9131624,42.5888231 L64.2905983,42.2659298 C62.1709402,41.2321196 59.7435897,40.7152146 57.008547,40.7152146 C53.4529915,40.7152146 50.2393162,41.5882098 47.3675214,43.3342003 C44.4957265,45.0801907 42.2165242,47.4349805 40.5299145,50.3985696 C38.8433048,53.3621586 38,56.6818379 38,60.3576073 C38,63.9874296 38.8319088,67.295622 40.4957265,70.2821847 C42.1595442,73.2687473 44.4273504,75.6350238 47.2991453,77.3810143 C50.1709402,79.1270048 53.4301994,80 57.0769231,80 Z M58.3076923,70.6957087 C56.4387464,70.6957087 54.7635328,70.2592111 53.2820513,69.3862159 C51.8005698,68.5132206 50.6495726,67.295622 49.8290598,65.73342 C49.008547,64.171218 48.5982906,62.3792805 48.5982906,60.3576073 C48.5982906,58.3359341 49.008547,56.5554833 49.8290598,55.0162549 C50.6495726,53.4770264 51.8005698,52.2594278 53.2820513,51.363459 C54.7635328,50.4674902 56.4387464,50.0195059 58.3076923,50.0195059 C60.1766382,50.0195059 61.8176638,50.4560035 63.2307692,51.3289987 C64.6438746,52.2019939 65.7492877,53.4195925 66.5470085,54.9817945 C67.3447293,56.5439965 67.7435897,58.3359341 67.7435897,60.3576073 C67.7435897,62.3792805 67.3447293,64.171218 66.5470085,65.73342 C65.7492877,67.295622 64.6438746,68.5132206 63.2307692,69.3862159 C61.8176638,70.2592111 60.1766382,70.6957087 58.3076923,70.6957087 Z" id="SvgjsPath1012" fill="#0060C6" fill-rule="nonzero"></path>
                <path d="M32.9230769,65 C36.5698006,65 39.8290598,64.1270048 42.7008547,62.3810143 C45.5726496,60.6350238 47.8404558,58.2687473 49.5042735,55.2821847 C51.1680912,52.295622 52,48.9874296 52,45.3576073 C52,41.6818379 51.1566952,38.3621586 49.4700855,35.3985696 C47.7834758,32.4349805 45.5042735,30.0801907 42.6324786,28.3342003 C39.7606838,26.5882098 36.5470085,25.7152146 32.991453,25.7152146 C30.2564103,25.7152146 27.8290598,26.2321196 25.7094017,27.2659298 C24.4376068,27.8862159 23.325812,28.6595059 22.3740171,29.5857997 L22.2541311,29.7080191 L22.2564103,12 L12,12 L12,64.1729519 L21.5726496,64.1729519 L21.5726496,60.5867794 L21.9189744,60.9505657 C22.8639316,61.8920221 23.9606838,62.6722042 25.2092308,63.2911118 L25.8461538,63.5871261 C28.011396,64.529042 30.3703704,65 32.9230769,65 Z M31.3642857,56 C29.5547619,56 27.9375,55.5566667 26.5125,54.67 C25.0875,53.7833333 23.9791667,52.5466667 23.1875,50.96 C22.3958333,49.3733333 22,47.5533333 22,45.5 C22,43.4466667 22.3958333,41.6266667 23.1875,40.04 C23.9791667,38.4533333 25.0875,37.2166667 26.5125,36.33 C27.9375,35.4433333 29.5547619,35 31.3642857,35 C33.2642857,35 34.9380952,35.455 36.3857143,36.365 C37.8333333,37.275 38.9642857,38.5116667 39.7785714,40.075 C40.5928571,41.6383333 41,43.4466667 41,45.5 C41,47.5533333 40.5928571,49.3733333 39.7785714,50.96 C38.9642857,52.5466667 37.8333333,53.7833333 36.3857143,54.67 C34.9380952,55.5566667 33.2642857,56 31.3642857,56 Z" id="SvgjsPath1011" fill="#0075F2" fill-rule="nonzero"></path>
                <rect id="SvgjsRect1010" fill-opacity="0" fill="#FFFFFF" x="0" y="0" width="91" height="91"></rect>
            </g>
        </g>
    </g>
</svg><style>@media (prefers-color-scheme: light) { :root { filter: none; } }
@media (prefers-color-scheme: dark) { :root { filter: none; } }
</style></svg>