<?xml version="1.0" encoding="UTF-8"?>
<svg width="308px" height="308px" viewBox="0 0 308 308" version="1.1" xmlns="http://www.w3.org/2000/svg" xmlns:xlink="http://www.w3.org/1999/xlink">
    <title>logo-icon</title>
    <g id="Page-1" stroke="none" stroke-width="1" fill="none" fill-rule="evenodd">
        <g id="logo-icon">
            <rect id="Rectangle" fill-opacity="0" fill="#FFFFFF" x="0" y="0" width="308" height="308"></rect>
            <g transform="translate(42.000000, 38.000000)" fill-rule="nonzero" id="p">
                <path d="M141,231.92 L140.999,173.825 L141.022824,173.84578 C144.466482,176.990465 148.442939,179.573551 152.952196,181.595037 L153.6,181.88 C161.2,185.16 169.48,186.8 178.44,186.8 C191.24,186.8 202.68,183.76 212.76,177.68 C222.84,171.6 230.8,163.36 236.64,152.96 C242.48,142.56 245.4,131.04 245.4,118.4 C245.4,105.6 242.44,94.04 236.52,83.72 C230.6,73.4 222.6,65.2 212.52,59.12 C202.44,53.04 191.16,50 178.68,50 C169.08,50 160.56,51.8 153.12,55.4 C147.380571,58.1771429 142.569502,61.8350367 138.686792,66.3736816 L138.6,66.476 L138.6,56.88 L105,52.88 L105,243.92 L141,231.92 Z M174.12,154.4 C167.72,154.4 162,152.88 156.96,149.84 C151.92,146.8 148,142.56 145.2,137.12 C142.4,131.68 141,125.44 141,118.4 C141,111.36 142.4,105.12 145.2,99.68 C148,94.24 151.92,90 156.96,86.96 C162,83.92 167.72,82.4 174.12,82.4 C180.84,82.4 186.76,83.96 191.88,87.08 C197,90.2 201,94.44 203.88,99.8 C206.76,105.16 208.2,111.36 208.2,118.4 C208.2,125.44 206.76,131.68 203.88,137.12 C201,142.56 197,146.8 191.88,149.84 C186.76,152.88 180.84,154.4 174.12,154.4 Z" fill="#0060C6"></path>
                <path d="M36,181.92 L35.999,123.825 L36.0228245,123.84578 C39.4664816,126.990465 43.4429388,129.573551 47.9521959,131.595037 L48.6,131.88 C56.2,135.16 64.48,136.8 73.44,136.8 C86.24,136.8 97.68,133.76 107.76,127.68 C117.84,121.6 125.8,113.36 131.64,102.96 C137.48,92.56 140.4,81.04 140.4,68.4 C140.4,55.6 137.44,44.04 131.52,33.72 C125.6,23.4 117.6,15.2 107.52,9.12 C97.44,3.04 86.16,-1.42108547e-14 73.68,-1.42108547e-14 C64.08,-1.42108547e-14 55.56,1.8 48.12,5.4 C42.3805714,8.17714286 37.569502,11.8350367 33.6867918,16.3736816 L33.6,16.476 L33.6,6.88 L-1.42108547e-14,2.88 L-1.42108547e-14,193.92 L36,181.92 Z M69.12,104.4 C62.72,104.4 57,102.88 51.96,99.84 C46.92,96.8 43,92.56 40.2,87.12 C37.4,81.68 36,75.44 36,68.4 C36,61.36 37.4,55.12 40.2,49.68 C43,44.24 46.92,40 51.96,36.96 C57,33.92 62.72,32.4 69.12,32.4 C75.84,32.4 81.76,33.96 86.88,37.08 C92,40.2 96,44.44 98.88,49.8 C101.76,55.16 103.2,61.36 103.2,68.4 C103.2,75.44 101.76,81.68 98.88,87.12 C96,92.56 92,96.8 86.88,99.84 C81.76,102.88 75.84,104.4 69.12,104.4 Z" fill="#0075F2"></path>
            </g>
        </g>
    </g>
</svg>